<svg width="932" height="274" viewBox="0 0 932 274" fill="none" xmlns="http://www.w3.org/2000/svg">
<path d="M8.064 27.288C6.928 27.288 5.904 27.072 4.992 26.64C4.096 26.208 3.344 25.64 2.736 24.936C2.144 24.232 1.72 23.472 1.464 22.656L2.856 22.152C3.304 23.368 3.968 24.296 4.848 24.936C5.744 25.576 6.808 25.896 8.04 25.896C8.856 25.896 9.568 25.76 10.176 25.488C10.8 25.216 11.288 24.832 11.64 24.336C11.992 23.84 12.168 23.256 12.168 22.584C12.168 21.656 11.904 20.936 11.376 20.424C10.864 19.912 10.192 19.544 9.36 19.32L6.096 18.36C4.768 17.976 3.784 17.36 3.144 16.512C2.52 15.648 2.208 14.672 2.208 13.584C2.208 12.64 2.432 11.816 2.88 11.112C3.344 10.392 3.968 9.832 4.752 9.432C5.536 9.032 6.424 8.832 7.416 8.832C8.456 8.832 9.384 9.032 10.2 9.432C11.032 9.816 11.728 10.328 12.288 10.968C12.864 11.592 13.272 12.288 13.512 13.056L12.144 13.56C11.744 12.456 11.128 11.624 10.296 11.064C9.464 10.488 8.512 10.2 7.44 10.2C6.736 10.2 6.104 10.336 5.544 10.608C4.984 10.88 4.544 11.264 4.224 11.76C3.904 12.256 3.744 12.84 3.744 13.512C3.744 14.328 3.976 15.024 4.44 15.6C4.904 16.176 5.68 16.632 6.768 16.968L9.696 17.832C10.976 18.216 11.96 18.808 12.648 19.608C13.352 20.392 13.704 21.36 13.704 22.512C13.704 23.456 13.464 24.288 12.984 25.008C12.504 25.712 11.832 26.272 10.968 26.688C10.12 27.088 9.152 27.288 8.064 27.288ZM23.3419 27.288C22.1259 27.288 21.0299 27 20.0539 26.424C19.0779 25.848 18.3019 25.056 17.7259 24.048C17.1659 23.024 16.8859 21.88 16.8859 20.616C16.8859 19.352 17.1659 18.216 17.7259 17.208C18.3019 16.2 19.0699 15.408 20.0299 14.832C21.0059 14.256 22.1099 13.968 23.3419 13.968C24.5579 13.968 25.6539 14.256 26.6299 14.832C27.6059 15.408 28.3739 16.2 28.9339 17.208C29.4939 18.2 29.7739 19.336 29.7739 20.616C29.7739 21.896 29.4859 23.04 28.9099 24.048C28.3339 25.056 27.5579 25.848 26.5819 26.424C25.6219 27 24.5419 27.288 23.3419 27.288ZM23.3419 25.872C24.2539 25.872 25.0779 25.648 25.8139 25.2C26.5659 24.736 27.1579 24.104 27.5899 23.304C28.0219 22.504 28.2379 21.608 28.2379 20.616C28.2379 19.624 28.0219 18.736 27.5899 17.952C27.1579 17.168 26.5739 16.544 25.8379 16.08C25.1019 15.616 24.2699 15.384 23.3419 15.384C22.4139 15.384 21.5739 15.616 20.8219 16.08C20.0859 16.528 19.5019 17.152 19.0699 17.952C18.6379 18.736 18.4219 19.624 18.4219 20.616C18.4219 21.608 18.6379 22.504 19.0699 23.304C19.5179 24.104 20.1099 24.736 20.8459 25.2C21.5819 25.648 22.4139 25.872 23.3419 25.872ZM39.0422 27.288C37.8262 27.288 36.7382 27 35.7782 26.424C34.8342 25.832 34.0822 25.032 33.5222 24.024C32.9782 23.016 32.7062 21.88 32.7062 20.616C32.7062 19.336 32.9782 18.2 33.5222 17.208C34.0822 16.2 34.8342 15.408 35.7782 14.832C36.7382 14.256 37.8262 13.968 39.0422 13.968C39.8422 13.968 40.5782 14.104 41.2502 14.376C41.9382 14.648 42.5462 15.016 43.0742 15.48C43.6022 15.944 44.0022 16.48 44.2742 17.088L43.0022 17.76C42.6182 17.024 42.0822 16.44 41.3942 16.008C40.7062 15.576 39.9222 15.36 39.0422 15.36C38.1302 15.36 37.3062 15.584 36.5702 16.032C35.8502 16.48 35.2742 17.104 34.8422 17.904C34.4102 18.688 34.1942 19.592 34.1942 20.616C34.1942 21.64 34.4102 22.552 34.8422 23.352C35.2742 24.136 35.8502 24.752 36.5702 25.2C37.3062 25.648 38.1302 25.872 39.0422 25.872C39.9222 25.872 40.7062 25.656 41.3942 25.224C42.0822 24.792 42.6182 24.2 43.0022 23.448L44.2742 24.144C44.0022 24.736 43.6022 25.272 43.0742 25.752C42.5462 26.216 41.9382 26.592 41.2502 26.88C40.5782 27.152 39.8422 27.288 39.0422 27.288ZM47.7186 27V14.256H49.1586V27H47.7186ZM47.7186 11.76V9.12H49.1586V11.76H47.7186ZM56.7572 27.288C55.9572 27.288 55.2452 27.136 54.6212 26.832C53.9972 26.528 53.5012 26.104 53.1332 25.56C52.7652 25.016 52.5812 24.392 52.5812 23.688C52.5812 23.064 52.7172 22.48 52.9892 21.936C53.2612 21.392 53.7012 20.928 54.3092 20.544C54.9172 20.144 55.7092 19.864 56.6852 19.704L61.8452 18.84V20.184L57.0692 20.976C55.9812 21.152 55.2132 21.48 54.7652 21.96C54.3172 22.44 54.0932 23 54.0932 23.64C54.0932 24.328 54.3492 24.888 54.8612 25.32C55.3892 25.752 56.0532 25.968 56.8532 25.968C57.7812 25.968 58.5892 25.76 59.2772 25.344C59.9652 24.912 60.5012 24.352 60.8852 23.664C61.2692 22.96 61.4612 22.192 61.4612 21.36V18.192C61.4612 17.344 61.1572 16.656 60.5492 16.128C59.9412 15.6 59.1492 15.336 58.1732 15.336C57.3732 15.336 56.6532 15.536 56.0132 15.936C55.3732 16.336 54.8852 16.856 54.5492 17.496L53.2532 16.8C53.4932 16.288 53.8612 15.816 54.3572 15.384C54.8532 14.952 55.4292 14.608 56.0852 14.352C56.7412 14.096 57.4372 13.968 58.1732 13.968C59.1012 13.968 59.9172 14.152 60.6212 14.52C61.3412 14.872 61.9012 15.368 62.3012 16.008C62.7012 16.632 62.9012 17.36 62.9012 18.192V27H61.4612V24.336L61.6292 24.456C61.4212 24.968 61.0772 25.44 60.5972 25.872C60.1172 26.288 59.5492 26.632 58.8932 26.904C58.2532 27.16 57.5412 27.288 56.7572 27.288ZM66.867 27V8.832H68.307V27H66.867ZM76.2186 27V8.832H77.6586V27H76.2186ZM81.6092 27V14.256H83.0492V27H81.6092ZM81.6092 11.76V9.12H83.0492V11.76H81.6092ZM86.9998 27V14.256H88.4398V16.824L88.0798 16.728C88.3678 15.88 88.8798 15.208 89.6158 14.712C90.3678 14.216 91.2398 13.968 92.2318 13.968C93.1118 13.968 93.9118 14.168 94.6318 14.568C95.3518 14.968 95.9278 15.528 96.3598 16.248C96.7918 16.952 97.0078 17.76 97.0078 18.672V27H95.5678V19.08C95.5678 18.312 95.4158 17.656 95.1118 17.112C94.8078 16.552 94.3838 16.128 93.8398 15.84C93.3118 15.536 92.7038 15.384 92.0158 15.384C91.2958 15.384 90.6638 15.552 90.1198 15.888C89.5758 16.224 89.1598 16.688 88.8718 17.28C88.5838 17.872 88.4398 18.552 88.4398 19.32V27H86.9998ZM100.734 27V8.832H102.174V21.816L101.43 21.744L108.966 14.256H110.934L105.798 19.392L111.414 27H109.614L104.286 19.848L105.246 19.872L101.79 23.424L102.174 22.44V27H100.734Z" fill="url(#paint0_linear_2230_416)"/>
<!-- <rect x="0.5" y="58.5" width="699" height="215" rx="4.5" stroke="#9747FF" stroke-dasharray="10 5"/>
<path d="M354.6 127.82C353.916 127.04 353.54 126.037 353.54 125H350.45V137.4C350.426 138.071 350.143 138.707 349.66 139.173C349.177 139.639 348.531 139.9 347.86 139.9C346.44 139.9 345.26 138.74 345.26 137.3C345.26 135.58 346.92 134.29 348.63 134.82V131.66C345.18 131.2 342.16 133.88 342.16 137.3C342.16 140.63 344.92 143 347.85 143C350.99 143 353.54 140.45 353.54 137.3V131.01C354.793 131.91 356.297 132.393 357.84 132.39V129.3C357.84 129.3 355.96 129.39 354.6 127.82Z" fill="#A1A1AA"/>
<path d="M354.6 191.82C353.916 191.04 353.54 190.037 353.54 189H350.45V201.4C350.426 202.071 350.143 202.707 349.66 203.173C349.177 203.639 348.531 203.9 347.86 203.9C346.44 203.9 345.26 202.74 345.26 201.3C345.26 199.58 346.92 198.29 348.63 198.82V195.66C345.18 195.2 342.16 197.88 342.16 201.3C342.16 204.63 344.92 207 347.85 207C350.99 207 353.54 204.45 353.54 201.3V195.01C354.793 195.91 356.297 196.393 357.84 196.39V193.3C357.84 193.3 355.96 193.39 354.6 191.82Z" fill="url(#paint0_linear_2230_416)"/>
<path d="M733.408 141V129.08H737.328C738.512 129.08 739.541 129.325 740.416 129.816C741.291 130.296 741.968 130.984 742.448 131.88C742.928 132.765 743.168 133.816 743.168 135.032C743.168 136.237 742.928 137.288 742.448 138.184C741.968 139.08 741.291 139.773 740.416 140.264C739.541 140.755 738.512 141 737.328 141H733.408ZM734.688 139.8H737.328C738.245 139.8 739.04 139.608 739.712 139.224C740.384 138.829 740.901 138.275 741.264 137.56C741.637 136.845 741.824 136.003 741.824 135.032C741.824 134.061 741.637 133.224 741.264 132.52C740.891 131.805 740.368 131.256 739.696 130.872C739.024 130.477 738.235 130.28 737.328 130.28H734.688V139.8ZM745.283 141V129.08H752.963V130.28H746.563V134.424H752.643V135.624H746.563V139.8H752.963V141H745.283ZM755.08 141V129.08H762.44V130.28H756.36V134.424H761.96V135.624H756.36V141H755.08ZM762.348 141L766.7 129.08H768.076L772.428 141H771.084L770.06 138.088H764.732L763.692 141H762.348ZM765.148 136.888H769.612L767.196 130.04H767.58L765.148 136.888ZM777.897 141.192C777.054 141.192 776.313 141.016 775.673 140.664C775.033 140.312 774.537 139.832 774.185 139.224C773.833 138.605 773.657 137.901 773.657 137.112V129.08H774.937V137.112C774.937 137.688 775.06 138.195 775.305 138.632C775.561 139.059 775.908 139.395 776.345 139.64C776.793 139.875 777.31 139.992 777.897 139.992C778.484 139.992 778.996 139.875 779.433 139.64C779.881 139.395 780.228 139.059 780.473 138.632C780.729 138.195 780.857 137.688 780.857 137.112V129.08H782.137V137.112C782.137 137.901 781.961 138.605 781.609 139.224C781.257 139.832 780.761 140.312 780.121 140.664C779.492 141.016 778.75 141.192 777.897 141.192ZM784.908 141V129.08H786.188V139.8H791.468V141H784.908ZM794.519 141V130.28H791.223V129.08H799.063V130.28H795.799V141H794.519Z" fill="#8D8D99"/>
<path d="M733.408 205V193.08H734.688V198.44H741.088V193.08H742.368V205H741.088V199.64H734.688V205H733.408ZM750.805 205.192C749.973 205.192 749.195 205.043 748.469 204.744C747.755 204.435 747.125 204.008 746.581 203.464C746.037 202.909 745.611 202.259 745.301 201.512C744.992 200.755 744.837 199.928 744.837 199.032C744.837 198.136 744.992 197.315 745.301 196.568C745.611 195.811 746.037 195.16 746.581 194.616C747.125 194.061 747.755 193.635 748.469 193.336C749.195 193.037 749.973 192.888 750.805 192.888C751.637 192.888 752.411 193.043 753.125 193.352C753.851 193.651 754.485 194.077 755.029 194.632C755.573 195.176 756 195.821 756.309 196.568C756.619 197.315 756.773 198.136 756.773 199.032C756.773 199.928 756.619 200.755 756.309 201.512C756 202.259 755.573 202.909 755.029 203.464C754.485 204.008 753.851 204.435 753.125 204.744C752.411 205.043 751.637 205.192 750.805 205.192ZM750.805 203.992C751.499 203.992 752.128 203.864 752.693 203.608C753.269 203.352 753.765 202.995 754.181 202.536C754.597 202.077 754.917 201.549 755.141 200.952C755.376 200.355 755.493 199.715 755.493 199.032C755.493 198.36 755.376 197.725 755.141 197.128C754.917 196.531 754.597 196.003 754.181 195.544C753.765 195.085 753.269 194.728 752.693 194.472C752.128 194.216 751.499 194.088 750.805 194.088C750.112 194.088 749.477 194.216 748.901 194.472C748.336 194.728 747.845 195.085 747.429 195.544C747.013 196.003 746.688 196.531 746.453 197.128C746.229 197.725 746.117 198.36 746.117 199.032C746.117 199.715 746.229 200.355 746.453 200.952C746.688 201.549 747.013 202.077 747.429 202.536C747.845 202.995 748.341 203.352 748.917 203.608C749.493 203.864 750.123 203.992 750.805 203.992ZM762.06 205L757.692 193.08H759.02L762.86 203.864H762.604L766.428 193.08H767.772L763.404 205H762.06ZM769.361 205V193.08H777.041V194.28H770.641V198.424H776.721V199.624H770.641V203.8H777.041V205H769.361ZM779.158 205V193.08H783.254C784.033 193.08 784.715 193.235 785.302 193.544C785.889 193.843 786.342 194.269 786.662 194.824C786.993 195.368 787.158 196.003 787.158 196.728C787.158 197.571 786.934 198.291 786.486 198.888C786.049 199.485 785.451 199.907 784.694 200.152L787.478 205H785.974L783.062 199.864L783.926 200.36H780.438V205H779.158ZM780.438 199.16H783.318C783.83 199.16 784.278 199.064 784.662 198.872C785.046 198.669 785.345 198.387 785.558 198.024C785.771 197.651 785.878 197.213 785.878 196.712C785.878 196.211 785.771 195.779 785.558 195.416C785.345 195.053 785.046 194.776 784.662 194.584C784.278 194.381 783.83 194.28 783.318 194.28H780.438V199.16Z" fill="#8D8D99"/> --> -->
<defs>
    <linearGradient id="paint0_linear_2230_416" x1="342.16" y1="198" x2="357.84" y2="198" gradientUnits="userSpaceOnUse">
        <stop stop-color="#FC4A1A"/>
        <stop offset="1" stop-color="#F7B733"/>
    </linearGradient>
    <circle fill="paint0_linear_2230_416">
</defs>
</svg>
